<svg width="178" height="75" viewBox="0 0 178 75" fill="none" xmlns="http://www.w3.org/2000/svg">
<path d="M83.0988 0H0.168213V20.4196H83.0988V0Z" fill="#FFCD04"/>
<path d="M3.72522 17.5073V16.1813H6.13406V7.03176H3.72522V5.7057H10.03V7.03176H7.62113V16.1813H10.03V17.5066L3.72522 17.5073Z" fill="#272B33"/>
<path d="M14.571 17.5073V5.7057H16.4786L17.7076 9.52075C17.8257 9.86621 17.9335 10.2084 18.031 10.5473C18.1285 10.8862 18.1988 11.1475 18.242 11.3312C18.2961 11.1477 18.3657 10.8862 18.4529 10.5473C18.5401 10.2084 18.6364 9.86035 18.7433 9.50458L19.9069 5.70781H21.8137V17.5073H20.3914V13.2233C20.3914 12.7489 20.4075 12.2099 20.4399 11.6062C20.4722 11.0024 20.5153 10.3853 20.5692 9.75489C20.6231 9.12444 20.6796 8.52094 20.7387 7.94439C20.7977 7.36784 20.8488 6.86419 20.892 6.43342L18.9844 12.3339H17.4489L15.5245 6.43342C15.5784 6.85528 15.6323 7.343 15.6862 7.89658C15.7401 8.45016 15.7886 9.03725 15.8317 9.65786C15.8748 10.2785 15.9126 10.8956 15.9449 11.5091C15.9773 12.1227 15.9934 12.6941 15.9934 13.2233V17.5073H14.571Z" fill="#272B33"/>
<path d="M26.2761 17.5073V5.70572H33.066V7.03178H27.7153V10.6879H32.5007V11.9978H27.7153V16.1848H33.066V17.5102L26.2761 17.5073Z" fill="#272B33"/>
<path d="M37.4634 17.5066V5.70572H41.1196C41.7601 5.69143 42.3939 5.83869 42.9624 6.13391C43.4762 6.40551 43.9024 6.8173 44.1915 7.32146C44.4914 7.86548 44.6418 8.47926 44.6274 9.10032C44.6471 9.8337 44.4288 10.5538 44.0051 11.1527C43.5904 11.7237 42.9963 12.1394 42.3177 12.3332L44.7905 17.5059H43.0735L40.8095 12.4963H38.9203V17.5073L37.4634 17.5066ZM38.9189 11.1857H41.1175C41.3866 11.1975 41.6552 11.1524 41.9059 11.0536C42.1565 10.9547 42.3835 10.8043 42.5722 10.612C42.7589 10.4088 42.9036 10.1707 42.9979 9.91139C43.0923 9.65208 43.1345 9.37668 43.122 9.10102C43.136 8.82382 43.0945 8.54662 43.0001 8.28562C42.9057 8.02462 42.7602 7.78505 42.5722 7.5809C42.382 7.39134 42.1545 7.24344 41.904 7.1466C41.6536 7.04976 41.3857 7.00611 41.1175 7.01842H38.9203L38.9189 11.1857Z" fill="#272B33"/>
<path d="M52.206 17.6684C51.52 17.6866 50.8384 17.5541 50.2091 17.2803C49.6798 17.0439 49.2325 16.6558 48.9239 16.1652C48.6117 15.6426 48.4497 15.0441 48.4556 14.4355H49.9103C49.8985 14.7005 49.947 14.9648 50.0521 15.2084C50.1572 15.4519 50.3162 15.6685 50.5171 15.8417C50.9989 16.2117 51.5982 16.3952 52.2046 16.3585C52.779 16.393 53.346 16.2145 53.7971 15.8572C53.9902 15.6828 54.1419 15.4675 54.2412 15.2271C54.3404 14.9866 54.3847 14.7269 54.3708 14.4672C54.3797 14.0225 54.2467 13.5866 53.9911 13.2227C53.7233 12.8571 53.3381 12.5945 52.8999 12.4788L51.2997 11.9782C50.5592 11.7757 49.9043 11.3388 49.4329 10.733C48.9929 10.1402 48.7626 9.41794 48.7783 8.67989C48.7638 8.0986 48.9121 7.52482 49.2065 7.02338C49.4962 6.55056 49.9138 6.16934 50.4109 5.92372C50.9801 5.64828 51.6068 5.51258 52.239 5.52787C53.1493 5.4836 54.0413 5.79354 54.728 6.39269C55.0412 6.68708 55.2882 7.04468 55.4527 7.44179C55.6172 7.8389 55.6954 8.26644 55.6821 8.69606H54.226C54.2401 8.44409 54.2005 8.19199 54.1099 7.95646C54.0192 7.72094 53.8795 7.50738 53.7001 7.32993C53.2902 6.98076 52.7609 6.80431 52.2235 6.83776C51.6971 6.80587 51.1771 6.96656 50.7604 7.28985C50.5839 7.44726 50.445 7.64236 50.3541 7.86071C50.2632 8.07905 50.2225 8.31505 50.2352 8.55122C50.2192 9.00865 50.3593 9.45789 50.6325 9.82513C50.9057 10.1924 51.2957 10.4557 51.7384 10.5719L53.3555 11.0887C54.0831 11.2889 54.7224 11.7276 55.1709 12.3345C55.6195 12.9413 55.8512 13.6812 55.8291 14.4355C55.8421 15.0328 55.6851 15.6214 55.3763 16.1328C55.0689 16.6225 54.6288 17.0148 54.1072 17.2641C53.5143 17.5443 52.8644 17.6827 52.2088 17.6684" fill="#272B33"/>
<path d="M59.4164 17.5073L62.4883 5.70572H64.4443L67.5 17.5073H66.0284L65.255 14.3715H61.6797L60.9063 17.5073H59.4164ZM64.5905 4.33185C64.3161 4.34325 64.0432 4.28495 63.7974 4.1624C63.6054 4.05848 63.431 3.92489 63.2807 3.76655C63.153 3.62755 63.018 3.49542 62.8764 3.3707C62.7467 3.25765 62.5794 3.19721 62.4074 3.20125C62.343 3.19977 62.2789 3.21148 62.2192 3.23566C62.1595 3.25984 62.1053 3.29599 62.0601 3.34188C62.0096 3.40047 61.9712 3.46846 61.947 3.54194C61.9229 3.61542 61.9135 3.69295 61.9194 3.77007V4.25521H60.8718V3.77007C60.8593 3.56397 60.8887 3.35749 60.9582 3.16306C61.0277 2.96863 61.1358 2.79028 61.2761 2.63877C61.4141 2.50267 61.5785 2.39623 61.7591 2.32598C61.9397 2.25573 62.1328 2.22316 62.3265 2.23027C62.6008 2.21948 62.8733 2.278 63.1189 2.40042C63.3112 2.50393 63.4857 2.63757 63.6357 2.79627C63.7638 2.93492 63.8987 3.06704 64.04 3.19211C64.1697 3.30516 64.337 3.36561 64.509 3.36156C64.5749 3.36499 64.6408 3.3542 64.7022 3.32994C64.7635 3.30568 64.819 3.26851 64.8647 3.22094C64.9612 3.10035 65.0078 2.94735 64.9948 2.79345V2.30831H66.0453V2.79275C66.0579 2.99817 66.0293 3.20404 65.9614 3.3983C65.8934 3.59255 65.7873 3.77129 65.6494 3.92405C65.5104 4.0607 65.3447 4.16716 65.1626 4.23673C64.9805 4.3063 64.786 4.33749 64.5912 4.32833M61.9715 13.1425H64.9463L64.0407 9.50459C63.8682 8.81508 63.7335 8.23854 63.6364 7.77495C63.5394 7.31137 63.4799 7.00998 63.4578 6.87076C63.4363 7.01138 63.377 7.31325 63.2799 7.77636C63.1829 8.23947 63.0482 8.81063 62.8757 9.48983L61.9715 13.1425Z" fill="#272B33"/>
<path d="M74.7737 17.6684C74.1382 17.6857 73.5081 17.5469 72.9386 17.2641C72.4349 17.0031 72.0231 16.594 71.7588 16.092C71.4721 15.5297 71.3305 14.9047 71.3468 14.2738V8.9386C71.3285 8.30431 71.4702 7.67564 71.7588 7.11052C72.0255 6.61234 72.4368 6.20665 72.9386 5.94688C73.5137 5.68059 74.1399 5.54266 74.7737 5.54266C75.4075 5.54266 76.0337 5.68059 76.6088 5.94688C77.1105 6.20683 77.5218 6.61248 77.7886 7.11052C78.0758 7.66984 78.2175 8.29249 78.2007 8.92102V14.2745C78.217 14.9054 78.0754 15.5304 77.7886 16.0927C77.5241 16.5946 77.1125 17.0036 76.6088 17.2648C76.0394 17.5476 75.4093 17.6864 74.7737 17.6691M74.7737 16.3599C75.042 16.3775 75.3109 16.3384 75.563 16.2452C75.8151 16.1519 76.0447 16.0065 76.2369 15.8185C76.6009 15.3885 76.7834 14.8338 76.7459 14.2716V8.9386C76.7834 8.37646 76.6009 7.82177 76.2369 7.39176C75.8311 7.04203 75.3133 6.84965 74.7776 6.84965C74.2419 6.84965 73.724 7.04203 73.3183 7.39176C72.9495 7.81946 72.7639 8.37512 72.8015 8.9386V14.2745C72.7639 14.8379 72.9495 15.3936 73.3183 15.8213C73.5097 16.008 73.7381 16.1527 73.9887 16.2459C74.2394 16.3392 74.5068 16.3789 74.7737 16.3627" fill="#272B33"/>
<path d="M5.39915 44.148H0V24.6171H15.2764V28.8857H5.39915V32.5243H13.2774V36.7935H5.39915V44.148ZM0.416942 43.7346H4.98291V36.3766H12.8577V32.9412H4.98291V28.4688H14.8594V25.0334H0.416942V43.7346Z" fill="white"/>
<path d="M21.9916 44.4398C21.0714 44.4581 20.1579 44.279 19.3128 43.9146C18.526 43.5553 17.8771 42.9503 17.4636 42.1906C16.985 41.2451 16.7563 40.193 16.7992 39.1342V29.2506H22.1428V37.9748C22.0739 38.6134 22.2498 39.2543 22.6349 39.7684C22.8262 39.941 23.0501 40.0735 23.2934 40.1581C23.5368 40.2426 23.7946 40.2774 24.0517 40.2606C24.3624 40.2622 24.6704 40.2034 24.9587 40.0876C25.2399 39.9703 25.4902 39.7896 25.6899 39.5596C25.9195 39.287 26.0873 38.968 26.1821 38.6244C26.3093 38.168 26.3697 37.6955 26.3614 37.2217V29.2506H31.705V44.1501H26.8922L26.7769 41.9853C26.3697 42.6773 25.7969 43.2571 25.1099 43.6727C24.1587 44.2052 23.0812 44.4703 21.9916 44.4398ZM17.2175 29.6676V39.1342C17.1751 40.1212 17.3852 41.1027 17.8278 41.986C18.1984 42.6672 18.7799 43.21 19.485 43.5328C20.2759 43.8723 21.1304 44.0387 21.9909 44.0208C23.0057 44.0508 24.0098 43.806 24.8968 43.312C25.7272 42.7959 26.3764 42.0341 26.7544 41.1324L27.106 40.3541L27.286 43.7332H31.2831V29.6676H26.7762V37.2217C26.7846 37.7365 26.7181 38.2498 26.5787 38.7454C26.4667 39.1467 26.269 39.519 25.9993 39.8366C25.756 40.1131 25.4521 40.3297 25.1113 40.4694C24.7732 40.6053 24.4119 40.6743 24.0475 40.6726C23.7358 40.6911 23.4236 40.6466 23.1295 40.5416C22.8354 40.4366 22.5656 40.2733 22.3361 40.0616C21.8658 39.4729 21.6461 38.7228 21.7244 37.9734V29.6676H17.2175Z" fill="white"/>
<path d="M39.372 44.4405C37.7753 44.4405 36.5948 44.0587 35.8621 43.3064C35.1295 42.5541 34.7604 41.3258 34.7604 39.6559V23.1104H40.104V39.0189C40.0645 39.4479 40.1602 39.8786 40.3775 40.2507C40.4935 40.3715 40.6358 40.4638 40.7934 40.5204C40.951 40.577 41.1196 40.5964 41.2859 40.5769C41.5149 40.5808 41.7438 40.5627 41.9693 40.5228C42.1556 40.4855 42.3834 40.4286 42.6478 40.3534L42.9459 40.2683L42.5831 43.6326L42.4952 43.6861C42.0524 43.9398 41.5731 44.1239 41.0743 44.2317C40.5179 44.3689 39.9472 44.4397 39.3742 44.4426M35.1773 23.5273V39.6559C35.1773 41.214 35.5085 42.3445 36.1617 43.0153C36.8148 43.6861 37.8927 44.0229 39.3727 44.0229C39.9125 44.0205 40.4501 43.9544 40.9744 43.826C41.3973 43.7328 41.8057 43.5831 42.1887 43.3809L42.4629 40.8343C42.3096 40.8744 42.1704 40.9046 42.0488 40.9299C41.7964 40.9756 41.5402 40.9963 41.2838 40.9918C41.0543 41.0129 40.823 40.9801 40.6085 40.8958C40.394 40.8116 40.2022 40.6783 40.0484 40.5066C39.7676 40.0632 39.6401 39.5397 39.6856 39.0168V23.5273H35.1773Z" fill="white"/>
<path d="M48.8423 44.4405C47.2455 44.4405 46.065 44.0587 45.3324 43.3064C44.5997 42.5541 44.2306 41.3257 44.2306 39.6559V23.1104H49.5742V39.0189C49.5347 39.4479 49.6304 39.8786 49.8477 40.2507C49.9641 40.3707 50.1064 40.4626 50.2637 40.5191C50.4211 40.5757 50.5892 40.5954 50.7554 40.5769C50.9842 40.5809 51.2128 40.5628 51.4381 40.5228C51.6259 40.4855 51.8544 40.4286 52.118 40.3534L52.4154 40.2683L52.0526 43.6326L51.9655 43.6861C51.5224 43.9399 51.0429 44.124 50.5438 44.2317C49.9874 44.3689 49.4167 44.4397 48.8437 44.4426M44.6475 23.5273V39.6559C44.6475 41.214 44.9787 42.3445 45.6319 43.0153C46.2851 43.6861 47.3622 44.0236 48.8423 44.0236C49.382 44.0212 49.9197 43.9552 50.4439 43.8267C50.8671 43.7335 51.2757 43.5838 51.6589 43.3816L51.9359 40.8336C51.7833 40.8737 51.6448 40.9039 51.5218 40.9292C51.2695 40.9749 51.0132 40.9957 50.7568 40.9911C50.5273 41.0121 50.296 40.9792 50.0815 40.8948C49.8669 40.8104 49.6752 40.677 49.5215 40.5052C49.2408 40.0619 49.1134 39.5388 49.1587 39.016V23.5273H44.6475Z" fill="white"/>
<path d="M69.6685 44.4405C68.4232 44.445 67.1818 44.302 65.9701 44.0144C64.8584 43.7552 63.7878 43.3437 62.7886 42.7917C61.902 42.3049 61.0943 41.6864 60.3931 40.9573L60.2743 40.8315L62.9341 37.1465L63.1064 37.3469C63.6063 37.9162 64.1909 38.4052 64.8396 38.7967C65.5493 39.2289 66.3125 39.5662 67.1099 39.8C67.9222 40.0434 68.7656 40.1673 69.6136 40.1677C70.1652 40.1807 70.7158 40.1154 71.2491 39.9737C71.5954 39.891 71.9077 39.7034 72.1434 39.4365C72.3286 39.2011 72.4257 38.9084 72.4176 38.609C72.4213 38.4446 72.3901 38.2812 72.3262 38.1297C72.2622 37.9783 72.1668 37.842 72.0464 37.7301C71.5884 37.3897 71.0552 37.1647 70.4918 37.0741L66.9608 36.2929C65.949 36.0673 64.9665 35.7264 64.0324 35.2769C63.2042 34.8828 62.4928 34.2799 61.9681 33.5276C61.438 32.705 61.1714 31.7403 61.2038 30.7623C61.1885 29.5759 61.5461 28.4146 62.2261 27.4422C62.9704 26.4234 63.9833 25.6315 65.1517 25.155C66.5838 24.5718 68.1206 24.2896 69.6664 24.3261C71.3008 24.2971 72.9256 24.5823 74.4524 25.1663C75.8254 25.7178 77.0625 26.5605 78.0783 27.6363L78.1986 27.7643L75.5422 31.3163L75.3721 31.1385C74.6303 30.3409 73.7427 29.6926 72.7572 29.2288C71.7574 28.7936 70.6758 28.5778 69.5855 28.596C69.0209 28.5786 68.4572 28.6529 67.9163 28.8161C67.5805 28.9112 67.2821 29.1076 67.0621 29.3786C66.8933 29.6129 66.805 29.8956 66.8104 30.1843C66.813 30.3564 66.8582 30.5251 66.942 30.6755C67.0258 30.8258 67.1456 30.9529 67.2906 31.0457C67.8287 31.3818 68.4268 31.6105 69.0519 31.7192L72.2665 32.4434C73.8488 32.7218 75.3307 33.4092 76.5652 34.4374C77.0322 34.8971 77.3976 35.4495 77.6381 36.0589C77.8786 36.6684 77.9888 37.3215 77.9616 37.9762C77.9986 39.2483 77.6181 40.4977 76.8781 41.5332C76.1207 42.5289 75.094 43.287 73.9195 43.7177C72.5605 44.2193 71.1204 44.4646 69.672 44.4412M60.8157 40.7949C61.462 41.4389 62.1958 41.9887 62.9953 42.4282C63.9612 42.961 64.9958 43.3582 66.07 43.6087C67.2498 43.8886 68.4587 44.0276 69.6713 44.0229C71.0677 44.0461 72.4564 43.8103 73.7669 43.3275C74.8683 42.9252 75.8316 42.2159 76.5427 41.2836C77.229 40.3196 77.5809 39.1575 77.5447 37.9748C77.5714 37.3766 77.4726 36.7795 77.2546 36.2219C77.0367 35.6642 76.7043 35.1584 76.2791 34.737C75.0986 33.762 73.6847 33.1111 72.1765 32.8484L68.9626 32.1242C68.2802 32.0061 67.6283 31.7527 67.0452 31.3789C66.8474 31.2481 66.6846 31.0707 66.5714 30.8623C66.4581 30.6539 66.3977 30.4208 66.3955 30.1836C66.3909 29.8081 66.5061 29.4408 66.7246 29.1353C66.9939 28.7944 67.3624 28.5456 67.7792 28.4231C68.364 28.244 68.9742 28.1616 69.5855 28.1791C70.7354 28.1606 71.8759 28.3896 72.9295 28.8506C73.8898 29.3005 74.7613 29.9198 75.5021 30.6786L77.6551 27.8001C76.7043 26.8282 75.562 26.0644 74.3005 25.5572C72.8238 24.9931 71.2525 24.7179 69.672 24.7465C68.1836 24.7104 66.7036 24.9806 65.324 25.5403C64.2261 25.987 63.2737 26.7296 62.5727 27.6855C61.9421 28.5877 61.6106 29.6651 61.625 30.7658C61.5915 31.6598 61.8314 32.5428 62.3126 33.297C62.7975 33.99 63.4541 34.5453 64.218 34.9085C65.1226 35.3442 66.0743 35.6744 67.0543 35.8929L70.5867 36.6747C71.2254 36.7779 71.8277 37.0402 72.3382 37.4376C72.4985 37.5886 72.6256 37.7714 72.7113 37.9743C72.797 38.1772 72.8395 38.3958 72.836 38.616C72.8431 39.0086 72.7147 39.3918 72.4725 39.7009C72.1839 40.0363 71.7981 40.2737 71.3686 40.3801C70.7968 40.533 70.2061 40.604 69.6143 40.591C68.7261 40.5905 67.8426 40.4607 66.9918 40.2057C66.16 39.9606 65.364 39.6072 64.6244 39.1546C64.0155 38.7855 63.4591 38.3361 62.97 37.8187L60.8157 40.7949Z" fill="white"/>
<path d="M87.0472 44.4398C86.0504 44.4607 85.0582 44.2992 84.1195 43.9631C83.3161 43.6688 82.6302 43.1215 82.1648 42.4036C81.6723 41.5534 81.4253 40.5832 81.4512 39.601V33.1732H78.9601V29.2506H81.4512V26.0564L86.7948 24.5799V29.2506H91.1055V33.1725H86.7892V38.7854C86.7642 39.0263 86.7903 39.2698 86.8656 39.4999C86.941 39.7301 87.0639 39.9418 87.2265 40.1213C87.585 40.4049 88.0358 40.5459 88.4921 40.5172C88.8775 40.5246 89.2619 40.4744 89.6325 40.3681C89.9384 40.273 90.2243 40.1229 90.4763 39.9251L90.7512 39.7086L91.3537 43.2241L91.2476 43.3001C90.6732 43.6945 90.0314 43.9804 89.3541 44.1438C88.5991 44.3412 87.8219 44.4407 87.0416 44.4398M79.3763 32.7591H81.8674V39.6003C81.8412 40.5039 82.0653 41.3972 82.515 42.1814C82.9326 42.8246 83.5481 43.3144 84.2685 43.5771C85.1597 43.8948 86.1013 44.0471 87.0472 44.0264C87.7917 44.0275 88.5332 43.9329 89.2536 43.7451C89.8386 43.6033 90.3962 43.3657 90.9037 43.042L90.4601 40.4553C90.2399 40.5902 90.0037 40.697 89.757 40.7731C89.346 40.8928 88.9193 40.9497 88.4914 40.9418C87.9325 40.9725 87.3822 40.7938 86.9481 40.4405C86.7399 40.2229 86.5807 39.9632 86.4813 39.6789C86.3818 39.3947 86.3444 39.0924 86.3715 38.7924V32.7591H90.6872V29.6654H86.3715V25.1283L81.8639 26.3742V29.6654H79.3728L79.3763 32.7591Z" fill="white"/>
<path d="M97.4471 44.4398C96.5376 44.4582 95.6337 44.2952 94.7879 43.9603C94.0641 43.6738 93.442 43.1784 93.0006 42.5372C92.5641 41.8504 92.3448 41.0479 92.3714 40.2345C92.3409 39.2304 92.6975 38.2529 93.3677 37.5044C94.2117 36.693 95.2905 36.1691 96.4501 36.0075L101.293 35.0084V34.7623C101.309 34.4968 101.272 34.2308 101.185 33.9795C101.098 33.7282 100.962 33.4965 100.785 33.2977C100.608 33.1175 100.393 32.9772 100.157 32.886C99.9208 32.7948 99.6679 32.755 99.4151 32.769C98.876 32.7538 98.3457 32.9077 97.8985 33.2091C97.4269 33.606 97.1211 34.1651 97.0414 34.7763L96.9971 34.9873L92.4269 33.908L92.4649 33.7111C92.7221 32.309 93.5223 31.0651 94.6916 30.2497C96.1898 29.3117 97.9421 28.8616 99.7069 28.9617C100.966 28.9306 102.218 29.1475 103.393 29.6001C104.367 29.9848 105.199 30.6595 105.776 31.5329C106.352 32.4767 106.64 33.5679 106.606 34.673V39.9737C106.606 40.6107 106.855 40.8948 107.411 40.8948C107.672 40.904 107.931 40.869 108.18 40.7914L108.493 40.6775L108.157 43.9357L108.049 43.9856C107.354 44.2845 106.603 44.4284 105.847 44.4075C105.136 44.4196 104.429 44.2913 103.768 44.0299C103.176 43.7919 102.669 43.3816 102.313 42.8522C102.241 42.7438 102.178 42.63 102.123 42.5119C102.073 42.5822 102.019 42.6498 101.962 42.7144C101.421 43.3171 100.731 43.7671 99.9621 44.0194C99.1528 44.2972 98.3027 44.4379 97.4471 44.4356M99.4158 32.3464C99.725 32.3329 100.034 32.3845 100.322 32.4979C100.61 32.6112 100.871 32.7838 101.088 33.0045C101.517 33.4841 101.741 34.1135 101.71 34.7566V35.3409L96.5323 36.4089C95.46 36.5549 94.4606 37.0343 93.6756 37.7793C93.0759 38.4522 92.7584 39.3302 92.789 40.231C92.7633 40.9616 92.9578 41.683 93.3473 42.3017C93.7436 42.8746 94.301 43.317 94.9489 43.5729C95.7438 43.8859 96.593 44.0377 97.4471 44.0194C98.2566 44.0217 99.0608 43.8886 99.8264 43.6256C100.528 43.3965 101.156 42.9875 101.65 42.4395C101.78 42.2883 101.893 42.1232 101.986 41.9473L102.22 41.5205L102.368 41.9839C102.436 42.2075 102.534 42.4205 102.661 42.6167C102.971 43.0771 103.412 43.4338 103.927 43.6404C104.537 43.8811 105.189 43.9989 105.846 43.987C106.502 44.0028 107.154 43.8876 107.765 43.6481L108.012 41.2576C107.813 41.2909 107.612 41.3064 107.41 41.304C106.622 41.304 106.187 40.8287 106.187 39.9681V34.6737C106.222 33.6489 105.957 32.6364 105.425 31.76C104.892 30.9576 104.127 30.3381 103.231 29.9854C102.107 29.5539 100.909 29.3477 99.7055 29.3786C98.028 29.2788 96.3607 29.7002 94.9321 30.5851C93.9066 31.2993 93.1863 32.3721 92.9135 33.5916L96.6835 34.481C96.8048 33.8424 97.1513 33.2685 97.6601 32.8639C98.1777 32.5125 98.7925 32.3322 99.4179 32.3485M99.0129 41.2526C98.5794 41.2626 98.1535 41.1381 97.7937 40.8962C97.6129 40.7717 97.467 40.6029 97.3701 40.406C97.2732 40.209 97.2285 39.9904 97.2404 39.7712C97.2263 39.5518 97.2641 39.3321 97.3509 39.13C97.4376 38.928 97.5708 38.7492 97.7396 38.6083C98.15 38.3213 98.6216 38.1338 99.1169 38.0605L101.712 37.5199V38.5837C101.721 38.989 101.646 39.3918 101.492 39.767C101.356 40.0895 101.149 40.3777 100.888 40.6107C100.635 40.8325 100.339 41 100.018 41.1029C99.6937 41.2072 99.3546 41.2596 99.0136 41.2583M101.296 38.0373L99.2006 38.4733C98.7701 38.5356 98.3592 38.6947 97.999 38.9387C97.8801 39.0413 97.7872 39.1706 97.7279 39.3161C97.6686 39.4615 97.6447 39.6189 97.658 39.7754C97.6471 39.9271 97.6757 40.0789 97.741 40.2162C97.8063 40.3535 97.9061 40.4715 98.0307 40.5587C98.3212 40.7532 98.6655 40.8515 99.015 40.8399C99.3125 40.8412 99.6083 40.7959 99.8918 40.7056C100.159 40.6209 100.405 40.482 100.616 40.2978C100.831 40.1058 101.001 39.8686 101.113 39.6032C101.244 39.2805 101.307 38.9345 101.298 38.5865L101.296 38.0373Z" fill="white"/>
<path d="M117.144 44.4398C115.681 44.4721 114.231 44.1622 112.909 43.5349C111.722 42.9538 110.741 42.0253 110.096 40.8729C109.413 39.5907 109.074 38.1532 109.112 36.7007C109.073 35.2482 109.413 33.8106 110.096 32.5285C110.732 31.3855 111.695 30.4586 112.861 29.8665C114.129 29.2437 115.527 28.9329 116.939 28.9602C118.218 28.9229 119.491 29.1401 120.685 29.5993C121.603 29.966 122.417 30.5545 123.053 31.3121C123.603 31.9776 123.973 32.7739 124.125 33.6239L124.155 33.8004L119.206 35.4393L119.166 35.1982C119.098 34.5584 118.86 33.9487 118.476 33.4327C118.3 33.2421 118.084 33.0937 117.843 32.9985C117.602 32.9033 117.343 32.8638 117.084 32.8828C116.579 32.8642 116.08 32.9983 115.651 33.2674C115.238 33.5721 114.936 34.0034 114.79 34.4958C114.565 35.2281 114.461 35.9925 114.483 36.7583C114.458 37.5144 114.571 38.2688 114.816 38.9844C114.979 39.4637 115.296 39.8762 115.716 40.1586C116.139 40.4058 116.623 40.5302 117.113 40.5179C117.494 40.5328 117.873 40.4475 118.211 40.2704C118.509 40.094 118.758 39.8449 118.934 39.5462C119.144 39.1816 119.272 38.7756 119.31 38.3565L119.339 38.1041L124.183 39.6551L124.155 39.8316C124.014 40.7177 123.619 41.544 123.019 42.2109C122.355 42.9371 121.529 43.4968 120.608 43.8449C119.501 44.2605 118.325 44.4621 117.143 44.4391M116.94 29.3772C115.594 29.35 114.261 29.6453 113.053 30.2385C111.959 30.7927 111.056 31.6615 110.46 32.7331C109.813 33.953 109.492 35.32 109.531 36.7007C109.492 38.0811 109.813 39.448 110.46 40.6676C111.064 41.7472 111.983 42.6171 113.094 43.1615C115.42 44.196 118.053 44.3024 120.454 43.4589C121.313 43.1343 122.084 42.6124 122.704 41.9353C123.211 41.3726 123.558 40.6843 123.709 39.942L119.686 38.6539C119.623 39.0452 119.488 39.4213 119.287 39.7627C119.075 40.1213 118.776 40.4201 118.417 40.6311C118.016 40.845 117.565 40.9495 117.111 40.9341C116.543 40.9473 115.983 40.8012 115.494 40.5122C114.999 40.1828 114.625 39.6999 114.431 39.1377C114.166 38.3733 114.043 37.5669 114.069 36.7583C114.047 35.9455 114.159 35.1345 114.4 34.3579C114.574 33.7805 114.933 33.2761 115.421 32.9215C115.918 32.6056 116.498 32.4469 117.087 32.4659C117.405 32.4471 117.724 32.4997 118.019 32.6199C118.315 32.7401 118.579 32.9248 118.794 33.1606C119.185 33.6651 119.441 34.2609 119.537 34.8916L123.686 33.5191C123.526 32.805 123.2 32.1387 122.734 31.5744C122.141 30.8699 121.382 30.3235 120.526 29.9839C119.384 29.5465 118.166 29.3405 116.944 29.3779" fill="white"/>
<path d="M143.1 44.1508H137.151L133.716 38.3474L131.628 40.6831V44.1508H126.284V23.1104H131.628V35.0048L136.831 29.252H142.878L137.323 35.1743L143.1 44.1508ZM137.391 43.7339H142.337L136.799 35.1251L141.916 29.6683H137.015L131.211 36.0862V23.5273H126.704V43.7339H131.211V40.5242L133.785 37.6415L137.391 43.7339Z" fill="white"/>
<path d="M40.2156 68.775H45.1978V61.4198H53.0768V57.5654H45.1978V53.5105H55.0751V49.6582H40.2156V68.775Z" fill="white"/>
<path d="M66.5742 62.0547C66.5829 62.549 66.5197 63.0418 66.3865 63.5179C66.283 63.8905 66.1002 64.2363 65.8507 64.5317C65.6288 64.7851 65.351 64.9835 65.0393 65.1111C64.7265 65.2369 64.3921 65.3006 64.055 65.2988C63.7706 65.3173 63.4855 65.2781 63.2166 65.1836C62.9478 65.0891 62.7009 64.9413 62.4906 64.749C62.0643 64.197 61.8674 63.502 61.9407 62.8084V54.2924H57.019V63.9672C56.9753 64.9899 57.1949 66.0066 57.6567 66.9202C58.0474 67.6417 58.6628 68.2161 59.4095 68.5563C60.2273 68.9092 61.1114 69.0821 62.0019 69.0633C63.0543 69.0946 64.0954 68.8394 65.014 68.325C65.8826 67.7882 66.5612 66.9927 66.9546 66.0505L67.0994 68.7736H71.5023V54.2896H66.5805L66.5742 62.0547Z" fill="white"/>
<path d="M81.2885 65.6173C81.0905 65.6376 80.8906 65.6115 80.7045 65.541C80.5184 65.4706 80.3512 65.3578 80.2163 65.2116C79.9674 64.8036 79.8557 64.3265 79.8978 63.8504V48.1515H74.976V64.4874C74.976 66.1102 75.3236 67.2788 76.0187 67.9931C76.7139 68.7075 77.8337 69.0644 79.3782 69.064C79.9345 69.0623 80.4887 68.9946 81.029 68.8622C81.5068 68.7592 81.9659 68.5835 82.3903 68.3412L82.7095 65.3881C82.439 65.4659 82.2072 65.5238 82.0141 65.5618C81.7754 65.6047 81.5331 65.6242 81.2906 65.6201" fill="white"/>
<path d="M90.7614 65.6173C90.5634 65.6376 90.3635 65.6114 90.1774 65.541C89.9913 65.4706 89.8241 65.3578 89.6892 65.2116C89.4403 64.8036 89.3287 64.3265 89.3707 63.8504V48.1515H84.4489V64.4874C84.4489 66.1102 84.7965 67.2788 85.4916 67.9931C86.1868 68.7075 87.3068 69.0644 88.8518 69.0639C89.4081 69.0623 89.9623 68.9946 90.5026 68.8622C90.9804 68.7592 91.4395 68.5835 91.8639 68.3412L92.1831 65.3881C91.9126 65.4659 91.6808 65.5238 91.4877 65.5618C91.2488 65.6047 91.0062 65.6243 90.7635 65.6201" fill="white"/>
<path d="M113.31 64.3848C112.636 64.9059 111.801 65.1772 110.949 65.1526C110.076 65.1834 109.213 64.9512 108.473 64.486C107.773 63.9984 107.25 63.2974 106.981 62.4878C106.626 61.4341 106.46 60.3262 106.489 59.2148C106.456 58.0948 106.637 56.9787 107.024 55.9271C107.304 55.1263 107.834 54.4366 108.535 53.9595C109.237 53.4824 110.073 53.2432 110.92 53.2771C111.74 53.2453 112.547 53.4788 113.223 53.943C113.941 54.5804 114.408 55.4529 114.541 56.4038L118.915 54.6369C118.638 53.5139 118.068 52.4844 117.264 51.6537C116.465 50.8653 115.493 50.2751 114.425 49.9303C113.238 49.5441 111.995 49.3541 110.747 49.3679C109.013 49.3251 107.297 49.7293 105.764 50.5413C104.366 51.3114 103.235 52.4884 102.52 53.9162C101.727 55.5679 101.34 57.3853 101.391 59.217C101.34 61.0486 101.727 62.8661 102.52 64.5177C103.235 65.9455 104.366 67.1225 105.764 67.8926C107.307 68.7066 109.032 69.1105 110.776 69.0654C112.036 69.08 113.29 68.8793 114.484 68.4719C115.587 68.0871 116.58 67.4413 117.38 66.5897C118.231 65.6561 118.838 64.5264 119.147 63.3013L114.629 62.0273C114.48 62.9444 114.013 63.78 113.31 64.3876" fill="white"/>
<path d="M129.023 62.428L128.212 65.6138L127.516 62.5434L125.287 54.2882H119.873L124.218 65.1505L125.898 69.0879L125.522 69.9857C125.376 70.4424 125.074 70.8327 124.667 71.0868C124.24 71.2952 123.767 71.3945 123.291 71.3758C122.794 71.3874 122.298 71.334 121.815 71.2169C121.419 71.1059 121.046 70.9244 120.714 70.6811L119.729 74.0124C120.279 74.3407 120.875 74.5848 121.496 74.7366C122.226 74.9168 122.975 75.0045 123.727 74.9975C124.801 75.0257 125.869 74.8181 126.855 74.3893C127.77 73.9446 128.549 73.2652 129.115 72.4206C129.86 71.2881 130.452 70.062 130.876 68.7743L136.149 54.2903H131.253L129.023 62.428Z" fill="white"/>
<path d="M146.664 64.4881C146.471 64.8169 146.197 65.0909 145.868 65.2841C145.498 65.4801 145.084 65.575 144.666 65.559C144.137 65.5725 143.615 65.4371 143.159 65.168C142.7 64.8631 142.354 64.415 142.175 63.8933C141.919 63.1538 141.801 62.3735 141.828 61.5913C141.805 60.8017 141.913 60.0137 142.147 59.2591C142.306 58.724 142.637 58.256 143.088 57.9268C143.549 57.6334 144.088 57.4863 144.634 57.5049C144.922 57.4866 145.211 57.5331 145.478 57.6407C145.746 57.7484 145.986 57.9146 146.181 58.1271C146.592 58.6719 146.847 59.3173 146.92 59.9953L151.467 58.4892C151.321 57.6745 150.967 56.9112 150.439 56.2738C149.825 55.542 149.039 54.9744 148.151 54.6222C146.983 54.1728 145.737 53.9613 144.487 53.9999C143.108 53.9712 141.742 54.274 140.504 54.883C139.372 55.4547 138.439 56.3529 137.824 57.4613C137.195 58.7257 136.868 60.1187 136.868 61.5309C136.868 62.9431 137.195 64.3361 137.824 65.6005C138.448 66.7171 139.398 67.6164 140.547 68.178C142.926 69.2396 145.621 69.3488 148.078 68.4832C148.969 68.1478 149.768 67.6067 150.41 66.904C150.985 66.2675 151.362 65.4774 151.496 64.6302L147.07 63.2134C147.029 63.6625 146.891 64.0973 146.664 64.4874" fill="white"/>
<path d="M160.307 65.6173C160.109 65.6376 159.909 65.6115 159.723 65.5411C159.537 65.4707 159.37 65.3579 159.235 65.2116C158.986 64.8037 158.874 64.3266 158.916 63.8504V48.1515H153.994V64.4874C153.994 66.1102 154.342 67.2788 155.037 67.9931C155.732 68.7075 156.852 69.0644 158.397 69.0639C158.954 69.0623 159.508 68.9946 160.048 68.8622C160.526 68.7591 160.985 68.5834 161.41 68.3412L161.728 65.3881C161.458 65.4659 161.226 65.5238 161.033 65.5618C160.794 65.6048 160.552 65.6243 160.309 65.6201" fill="white"/>
<path d="M176.687 57.3193C176.121 56.2903 175.271 55.4457 174.239 54.8858C173.042 54.2651 171.706 53.9611 170.358 54.0027C168.987 53.9766 167.631 54.2848 166.406 54.9006C165.285 55.4737 164.358 56.3659 163.742 57.4648C163.123 58.732 162.801 60.1239 162.801 61.5344C162.801 62.9449 163.123 64.3368 163.742 65.604C164.363 66.7087 165.302 67.6015 166.436 68.1668C167.72 68.7923 169.136 69.1004 170.565 69.0654C171.556 69.0731 172.543 68.9265 173.489 68.6308C174.355 68.3644 175.158 67.926 175.851 67.342C176.502 66.7953 176.989 66.0785 177.257 65.2714L173.319 63.939C173.128 64.434 172.789 64.8584 172.349 65.1554C171.82 65.4698 171.211 65.6209 170.596 65.5899C170.01 65.6074 169.43 65.4673 168.916 65.1842C168.43 64.8873 168.053 64.4398 167.844 63.9095C167.696 63.5475 167.597 63.1676 167.548 62.7796H177.432C177.476 62.4966 177.505 62.2114 177.519 61.9253C177.538 61.5874 177.547 61.2358 177.548 60.8707C177.571 59.6341 177.277 58.4123 176.693 57.3221M168.786 57.8846C169.256 57.5843 169.806 57.4329 170.364 57.4501C170.738 57.4242 171.112 57.4961 171.45 57.6587C171.788 57.8213 172.078 58.069 172.291 58.3775C172.614 58.9039 172.809 59.4991 172.859 60.1148H167.581C167.627 59.8143 167.701 59.5185 167.8 59.231C167.974 58.6874 168.319 58.2149 168.784 57.8846" fill="white"/>
<path d="M9.51879 52.6683C9.13949 52.3394 8.64773 52.1698 8.14633 52.1951C7.87848 52.179 7.61029 52.2204 7.35983 52.3167C7.10937 52.4131 6.88247 52.5619 6.69441 52.7533C6.33621 53.1472 6.14752 53.6663 6.16919 54.1982C6.16975 54.5297 6.2273 54.8586 6.33935 55.1706C6.5102 55.572 6.73594 55.9478 7.01011 56.2872C7.18026 56.5234 7.40385 56.7997 7.6865 57.1309L7.80462 57.282L7.96211 57.1639C8.22974 56.9822 8.48635 56.7847 8.73061 56.5726C9.1426 56.2325 9.48394 55.815 9.73535 55.3436C9.93653 54.9236 10.0378 54.4628 10.0314 53.9971C10.0441 53.7523 10.0049 53.5076 9.91649 53.2789C9.82804 53.0503 9.69227 52.8429 9.51809 52.6704M9.55465 55.2529C9.3138 55.6975 8.98795 56.0905 8.59561 56.4095C8.38468 56.593 8.12945 56.7842 7.8468 56.9945C7.58384 56.6788 7.35463 56.3961 7.17674 56.1599C6.91672 55.8336 6.70241 55.4733 6.53973 55.0891C6.4342 54.8039 6.37992 54.5023 6.37942 54.1982C6.35525 53.7191 6.5204 53.2496 6.83925 52.8912C7.00998 52.7214 7.21474 52.5898 7.44004 52.505C7.66533 52.4201 7.90605 52.384 8.14633 52.399C8.59491 52.377 9.03482 52.528 9.37536 52.8208C9.52983 52.9737 9.65007 53.1576 9.72813 53.3603C9.80619 53.5631 9.84029 53.7802 9.82816 53.9971C9.83325 54.431 9.73973 54.8604 9.55465 55.2529ZM10.3759 64.936C9.8373 64.4101 9.25934 63.8188 8.64131 63.1783C7.62954 62.1236 6.76262 61.1948 6.04685 60.4193L5.9217 60.2787L5.77124 60.3912C5.60038 60.5156 5.44289 60.6408 5.30437 60.7589C4.94186 61.057 4.65311 61.4347 4.46065 61.8628C4.30089 62.2912 4.2229 62.7457 4.23073 63.2029C4.22127 63.7048 4.3758 64.196 4.67088 64.6021C4.98313 65.0097 5.39804 65.3271 5.87319 65.5217C6.4197 65.7428 7.00492 65.8523 7.59439 65.8438C8.43563 65.8617 9.27166 65.7074 10.051 65.3903C10.1101 65.3706 10.1692 65.3382 10.2282 65.3122L10.5798 65.1477L10.3759 64.936ZM9.9751 65.1983C9.22085 65.5053 8.41127 65.653 7.5972 65.6321C7.03692 65.6439 6.48015 65.541 5.96108 65.3298C5.51942 65.153 5.13539 64.8573 4.85157 64.4755C4.57622 64.1084 4.43056 63.6603 4.43745 63.2015C4.43207 62.7713 4.50571 62.3437 4.65471 61.9401C4.83886 61.5426 5.10818 61.1905 5.44359 60.9087C5.58852 60.7839 5.73964 60.6666 5.89639 60.5571C6.61262 61.339 7.47978 62.2565 8.49788 63.3098C9.13067 63.9735 9.70722 64.5641 10.2254 65.0767C10.1403 65.1167 10.0553 65.1554 9.97581 65.1948M10.3766 64.9325C9.838 64.4066 9.26005 63.8153 8.64202 63.1748C7.63025 62.1201 6.76332 61.1913 6.04756 60.4158L5.9224 60.2752L5.77194 60.3877C5.60109 60.5121 5.44359 60.6373 5.30508 60.7554C4.94257 61.0534 4.65381 61.4312 4.46135 61.8593C4.30159 62.2877 4.22361 62.7422 4.23144 63.1994C4.22197 63.7012 4.37651 64.1925 4.67158 64.5986C4.98383 65.0062 5.39874 65.3236 5.87389 65.5182C6.42041 65.7393 7.00562 65.8488 7.59509 65.8402C8.43634 65.8582 9.27237 65.7039 10.0517 65.3867C10.1108 65.3671 10.1699 65.3347 10.2289 65.3087L10.5805 65.1442L10.3766 64.9325ZM9.97581 65.1948C9.22156 65.5018 8.41197 65.6495 7.59791 65.6286C7.03763 65.6404 6.48085 65.5375 5.96178 65.3263C5.52013 65.1495 5.13609 64.8538 4.85228 64.472C4.57693 64.1049 4.43126 63.6568 4.43815 63.198C4.43277 62.7678 4.50641 62.3402 4.65541 61.9366C4.83956 61.5391 5.10889 61.187 5.44429 60.9051C5.58922 60.7804 5.74035 60.6631 5.89709 60.5536C6.61332 61.3354 7.48049 62.253 8.49858 63.3062C9.13138 63.97 9.70792 64.5606 10.2261 65.0732C10.141 65.1132 10.056 65.1519 9.97651 65.1913M7.01011 56.2872C7.18026 56.5234 7.40385 56.7997 7.6865 57.1309L7.80462 57.282L7.96211 57.1639C8.22974 56.9822 8.48635 56.7847 8.73061 56.5726C9.1426 56.2325 9.48394 55.815 9.73535 55.3436C9.93653 54.9236 10.0378 54.4628 10.0314 53.9971C10.0441 53.7523 10.0049 53.5076 9.91649 53.2789C9.82804 53.0503 9.69227 52.8429 9.51809 52.6704C9.13879 52.3415 8.64703 52.1719 8.14562 52.1972C7.87777 52.1811 7.60958 52.2226 7.35912 52.3189C7.10867 52.4152 6.88176 52.564 6.69371 52.7555C6.33628 53.1489 6.14789 53.6671 6.16919 54.1982C6.16975 54.5297 6.2273 54.8586 6.33935 55.1706C6.5102 55.572 6.73594 55.9478 7.01011 56.2872ZM6.83925 52.8912C7.00998 52.7214 7.21474 52.5898 7.44004 52.505C7.66533 52.4201 7.90605 52.384 8.14633 52.399C8.59491 52.377 9.03482 52.528 9.37536 52.8208C9.52983 52.9737 9.65007 53.1576 9.72813 53.3603C9.80619 53.5631 9.84029 53.7802 9.82816 53.9971C9.83325 54.431 9.73973 54.8604 9.55465 55.2529C9.3138 55.6975 8.98795 56.0905 8.59561 56.4095C8.38468 56.593 8.12945 56.7842 7.8468 56.9945C7.58384 56.6788 7.35463 56.3961 7.17674 56.1599C6.91672 55.8336 6.70241 55.4733 6.53973 55.0891C6.4342 54.8039 6.37992 54.5023 6.37942 54.1982C6.35525 53.7191 6.5204 53.2496 6.83925 52.8912ZM16.4894 65.3361C15.9675 65.2027 15.4795 64.961 15.0571 64.6267C15.0178 64.6 14.9784 64.5676 14.9454 64.5416C15.4858 63.8648 15.9132 63.105 16.2109 62.2917C16.6113 61.1976 16.8114 60.0403 16.8016 58.8753V58.8296L13.504 58.7445C13.5508 59.6424 13.4578 60.5421 13.2284 61.4114C13.1155 61.7895 12.9793 62.1603 12.8206 62.5216C12.2693 61.9303 11.6253 61.2469 10.8962 60.4523C10.3569 59.8547 9.8844 59.3161 9.45692 58.8429C10.0711 58.6178 10.6593 58.3272 11.2112 57.976C11.9904 57.5016 12.6387 56.8398 13.0969 56.0509C13.5018 55.3149 13.7098 54.4869 13.7009 53.647C13.7061 52.8409 13.4815 52.05 13.0534 51.367C12.6253 50.684 12.0114 50.1371 11.2836 49.7905C10.2907 49.3315 9.20356 49.1132 8.11047 49.1534C6.93932 49.1046 5.77506 49.3553 4.72783 49.8819C3.9614 50.2767 3.31828 50.8747 2.86877 51.6104C2.41926 52.3461 2.18067 53.1912 2.17907 54.0534C2.17488 54.6315 2.25663 55.2071 2.42164 55.7612C2.63243 56.3944 2.94083 56.9908 3.33568 57.5288C3.53302 57.8101 3.7695 58.119 4.04511 58.4555C3.68599 58.5767 3.33689 58.7257 3.001 58.9013C2.34572 59.2401 1.77039 59.715 1.31355 60.2941C0.921266 60.7812 0.630982 61.3421 0.459978 61.9436C0.295658 62.4735 0.20921 63.0244 0.203345 63.5791C0.193747 64.6066 0.498711 65.6125 1.0773 66.4618C1.66899 67.2717 2.48452 67.891 3.42357 68.2435C4.54259 68.6711 5.73366 68.8785 6.93136 68.8545C8.32025 68.8917 9.69905 68.6085 10.9609 68.0269C11.4849 67.7704 11.9768 67.4527 12.4261 67.0805C12.8156 67.3948 13.226 67.6824 13.6545 67.9411C14.2317 68.2968 14.868 68.5461 15.5332 68.6773C16.2313 68.8022 16.9396 68.8618 17.6488 68.8552L17.7079 68.4333L18.0826 65.405C17.5524 65.4667 17.0156 65.443 16.4929 65.3347M17.4976 68.3693L17.4646 68.6456C16.8301 68.644 16.197 68.5869 15.5725 68.4748C14.9317 68.3454 14.3183 68.1054 13.7599 67.7653C13.3383 67.5103 12.9343 67.2273 12.5506 66.9181L12.4198 66.8063L12.2883 66.9181C11.8528 67.2808 11.3766 67.5918 10.8695 67.8448C9.63516 68.4083 8.28844 68.6825 6.93206 68.6463C5.76155 68.67 4.59734 68.4693 3.50232 68.055C2.60384 67.7102 1.82303 67.1151 1.25238 66.3401C0.694596 65.5288 0.404055 64.5635 0.421307 63.5791C0.425667 63.0451 0.505196 62.5145 0.657551 62.0027C0.826735 61.4291 1.10195 60.8922 1.46893 60.42C1.91269 59.8658 2.46765 59.4107 3.09803 59.0841C3.42331 58.9148 3.76165 58.7718 4.1098 58.6566L4.38612 58.5512L4.20191 58.3212C3.91363 57.9697 3.68934 57.6645 3.50583 57.4072C3.12775 56.8863 2.82962 56.3119 2.62132 55.7029C2.46142 55.1677 2.38111 54.6119 2.38297 54.0534C2.38671 53.27 2.59256 52.5008 2.98061 51.8203C3.42015 51.0746 4.05976 50.4669 4.82697 50.0661C5.84481 49.5583 6.97464 49.3164 8.11117 49.363C9.17244 49.3235 10.228 49.535 11.1922 49.9803C11.912 50.3306 12.5162 50.8802 12.9331 51.5637C13.3013 52.1958 13.494 52.9148 13.4913 53.6463C13.4987 54.4515 13.2997 55.2452 12.9134 55.9518C12.4708 56.7088 11.8485 57.3451 11.1015 57.8045C10.5598 58.1428 9.98521 58.4255 9.38661 58.6482L9.10536 58.7607L9.30856 58.9836C9.73042 59.4631 10.2022 59.9953 10.7478 60.6007C11.4769 61.3889 12.1203 62.0772 12.6792 62.6636L12.8902 62.8935L13.021 62.6053C13.1809 62.2377 13.3171 61.8603 13.4288 61.4754C13.6516 60.656 13.7488 59.8075 13.717 58.9589L16.5295 59.0377H16.5948C16.5818 60.1245 16.3864 61.2014 16.0169 62.2235C15.7277 63.0152 15.3106 63.7541 14.7822 64.4108L14.6508 64.5754L14.932 64.7926C15.3777 65.1453 15.8936 65.3989 16.4451 65.5365C16.904 65.6386 17.3756 65.6718 17.8443 65.6349L17.4976 68.3693ZM8.64061 63.1783C7.62884 62.1236 6.76191 61.1948 6.04615 60.4193L5.921 60.2787L5.77053 60.3912C5.59968 60.5156 5.44218 60.6408 5.30367 60.7589C4.94116 61.057 4.65241 61.4347 4.45995 61.8628C4.30019 62.2912 4.2222 62.7457 4.23003 63.2029C4.22057 63.7048 4.3751 64.196 4.67017 64.6021C4.98242 65.0097 5.39734 65.3271 5.87248 65.5217C6.419 65.7428 7.00422 65.8523 7.59369 65.8438C8.43493 65.8617 9.27096 65.7074 10.0503 65.3903C10.1094 65.3706 10.1685 65.3382 10.2275 65.3122L10.5791 65.1477L10.3681 64.9367C9.82956 64.4108 9.25161 63.8195 8.63358 63.179M9.96948 65.2018C9.21523 65.5088 8.40564 65.6565 7.59158 65.6356C7.0313 65.6474 6.47452 65.5445 5.95545 65.3333C5.5138 65.1565 5.12976 64.8608 4.84595 64.479C4.5706 64.112 4.42493 63.6638 4.43182 63.205C4.42645 62.7748 4.50009 62.3473 4.64908 61.9436C4.83324 61.5461 5.10256 61.194 5.43796 60.9122C5.58289 60.7875 5.73402 60.6701 5.89076 60.5606C6.60699 61.3425 7.47416 62.26 8.49226 63.3133C9.12505 63.977 9.7016 64.5676 10.2198 65.0802C10.1347 65.1203 10.0496 65.1589 9.97018 65.1983M7.01011 56.2872C7.18026 56.5234 7.40385 56.7997 7.6865 57.1309L7.80462 57.282L7.96211 57.1639C8.22974 56.9822 8.48635 56.7847 8.73061 56.5726C9.1426 56.2325 9.48394 55.815 9.73535 55.3436C9.93653 54.9236 10.0378 54.4628 10.0314 53.9971C10.0441 53.7523 10.0049 53.5076 9.91649 53.2789C9.82804 53.0503 9.69227 52.8429 9.51809 52.6704C9.13879 52.3415 8.64703 52.1719 8.14562 52.1972C7.87777 52.1811 7.60958 52.2226 7.35912 52.3189C7.10867 52.4152 6.88176 52.564 6.69371 52.7555C6.33628 53.1489 6.14789 53.6671 6.16919 54.1982C6.16975 54.5297 6.2273 54.8586 6.33935 55.1706C6.5102 55.572 6.73594 55.9478 7.01011 56.2872ZM6.83925 52.8912C7.00998 52.7214 7.21474 52.5898 7.44004 52.505C7.66533 52.4201 7.90605 52.384 8.14633 52.399C8.59491 52.377 9.03482 52.528 9.37536 52.8208C9.52983 52.9737 9.65007 53.1576 9.72813 53.3603C9.80619 53.5631 9.84029 53.7802 9.82816 53.9971C9.83325 54.431 9.73973 54.8604 9.55465 55.2529C9.3138 55.6975 8.98795 56.0905 8.59561 56.4095C8.38468 56.593 8.12945 56.7842 7.8468 56.9945C7.58384 56.6788 7.35463 56.3961 7.17674 56.1599C6.91672 55.8336 6.70241 55.4733 6.53973 55.0891C6.4342 54.8039 6.37992 54.5023 6.37942 54.1982C6.35525 53.7191 6.5204 53.2496 6.83925 52.8912ZM9.51879 52.6683C9.13949 52.3394 8.64773 52.1698 8.14633 52.1951C7.87848 52.179 7.61029 52.2204 7.35983 52.3167C7.10937 52.4131 6.88247 52.5619 6.69441 52.7533C6.33621 53.1472 6.14752 53.6663 6.16919 54.1982C6.16975 54.5297 6.2273 54.8586 6.33935 55.1706C6.5102 55.572 6.73594 55.9478 7.01011 56.2872C7.18026 56.5234 7.40385 56.7997 7.6865 57.1309L7.80462 57.282L7.96211 57.1639C8.22974 56.9822 8.48635 56.7847 8.73061 56.5726C9.1426 56.2325 9.48394 55.815 9.73535 55.3436C9.93653 54.9236 10.0378 54.4628 10.0314 53.9971C10.0441 53.7523 10.0049 53.5076 9.91649 53.2789C9.82804 53.0503 9.69227 52.8429 9.51809 52.6704M9.55465 55.2529C9.3138 55.6975 8.98795 56.0905 8.59561 56.4095C8.38468 56.593 8.12945 56.7842 7.8468 56.9945C7.58384 56.6788 7.35463 56.3961 7.17674 56.1599C6.91672 55.8336 6.70241 55.4733 6.53973 55.0891C6.4342 54.8039 6.37992 54.5023 6.37942 54.1982C6.35525 53.7191 6.5204 53.2496 6.83925 52.8912C7.00998 52.7214 7.21474 52.5898 7.44004 52.505C7.66533 52.4201 7.90605 52.384 8.14633 52.399C8.59491 52.377 9.03482 52.528 9.37536 52.8208C9.52983 52.9737 9.65007 53.1576 9.72813 53.3603C9.80619 53.5631 9.84029 53.7802 9.82816 53.9971C9.83325 54.431 9.73973 54.8604 9.55465 55.2529ZM10.3759 64.936C9.8373 64.4101 9.25934 63.8188 8.64131 63.1783C7.62954 62.1236 6.76262 61.1948 6.04685 60.4193L5.9217 60.2787L5.77124 60.3912C5.60038 60.5156 5.44289 60.6408 5.30437 60.7589C4.94186 61.057 4.65311 61.4347 4.46065 61.8628C4.30089 62.2912 4.2229 62.7457 4.23073 63.2029C4.22127 63.7048 4.3758 64.196 4.67088 64.6021C4.98313 65.0097 5.39804 65.3271 5.87319 65.5217C6.4197 65.7428 7.00492 65.8523 7.59439 65.8438C8.43563 65.8617 9.27166 65.7074 10.051 65.3903C10.1101 65.3706 10.1692 65.3382 10.2282 65.3122L10.5798 65.1477L10.3759 64.936ZM9.9751 65.1983C9.22085 65.5053 8.41127 65.653 7.5972 65.6321C7.03692 65.6439 6.48015 65.541 5.96108 65.3298C5.51942 65.153 5.13539 64.8573 4.85157 64.4755C4.57622 64.1084 4.43056 63.6603 4.43745 63.2015C4.43207 62.7713 4.50571 62.3437 4.65471 61.9401C4.83886 61.5426 5.10818 61.1905 5.44359 60.9087C5.58852 60.7839 5.73964 60.6666 5.89639 60.5571C6.61262 61.339 7.47978 62.2565 8.49788 63.3098C9.13067 63.9735 9.70722 64.5641 10.2254 65.0767C10.1403 65.1167 10.0553 65.1554 9.97581 65.1948M10.3766 64.9325C9.838 64.4066 9.26005 63.8153 8.64202 63.1748C7.63025 62.1201 6.76332 61.1913 6.04756 60.4158L5.9224 60.2752L5.77194 60.3877C5.60109 60.5121 5.44359 60.6373 5.30508 60.7554C4.94257 61.0534 4.65381 61.4312 4.46135 61.8593C4.30159 62.2877 4.22361 62.7422 4.23144 63.1994C4.22197 63.7012 4.37651 64.1925 4.67158 64.5986C4.98383 65.0062 5.39874 65.3236 5.87389 65.5182C6.42041 65.7393 7.00562 65.8488 7.59509 65.8402C8.43634 65.8582 9.27237 65.7039 10.0517 65.3867C10.1108 65.3671 10.1699 65.3347 10.2289 65.3087L10.5805 65.1442L10.3766 64.9325ZM9.97581 65.1948C9.22156 65.5018 8.41197 65.6495 7.59791 65.6286C7.03763 65.6404 6.48085 65.5375 5.96178 65.3263C5.52013 65.1495 5.13609 64.8538 4.85228 64.472C4.57693 64.1049 4.43126 63.6568 4.43815 63.198C4.43277 62.7678 4.50641 62.3402 4.65541 61.9366C4.83956 61.5391 5.10889 61.187 5.44429 60.9051C5.58922 60.7804 5.74035 60.6631 5.89709 60.5536C6.61332 61.3354 7.48049 62.253 8.49858 63.3062C9.13138 63.97 9.70792 64.5606 10.2261 65.0732C10.141 65.1132 10.056 65.1519 9.97651 65.1913M9.52301 52.6577C9.14371 52.3288 8.65195 52.1593 8.15055 52.1845C7.8827 52.1684 7.6145 52.2099 7.36405 52.3062C7.11359 52.4025 6.88669 52.5514 6.69863 52.7428C6.33627 53.1386 6.14585 53.6621 6.16919 54.1982C6.16975 54.5297 6.2273 54.8586 6.33935 55.1706C6.5102 55.572 6.73594 55.9478 7.01011 56.2872C7.18026 56.5234 7.40385 56.7997 7.6865 57.1309L7.80462 57.282L7.96211 57.1639C8.22974 56.9822 8.48635 56.7847 8.73061 56.5726C9.1426 56.2325 9.48394 55.815 9.73535 55.3436C9.93653 54.9236 10.0378 54.4628 10.0314 53.9971C10.0441 53.7523 10.0049 53.5076 9.91649 53.2789C9.82804 53.0503 9.69227 52.8429 9.51809 52.6704M9.55465 55.2529C9.3138 55.6975 8.98795 56.0905 8.59561 56.4095C8.38468 56.593 8.12945 56.7842 7.8468 56.9945C7.58384 56.6788 7.35463 56.3961 7.17674 56.1599C6.91672 55.8336 6.70241 55.4733 6.53973 55.0891C6.4342 54.8039 6.37992 54.5023 6.37942 54.1982C6.35525 53.7191 6.5204 53.2496 6.83925 52.8912C7.00998 52.7214 7.21474 52.5898 7.44004 52.505C7.66533 52.4201 7.90605 52.384 8.14633 52.399C8.59491 52.377 9.03482 52.528 9.37536 52.8208C9.52983 52.9737 9.65007 53.1576 9.72813 53.3603C9.80619 53.5631 9.84029 53.7802 9.82816 53.9971C9.83325 54.431 9.73973 54.8604 9.55465 55.2529Z" fill="white"/>
<path d="M9.51974 52.6682C9.14034 52.3395 8.64866 52.17 8.14728 52.1951C7.87943 52.1788 7.61121 52.2203 7.36073 52.3166C7.11026 52.4129 6.88337 52.5618 6.69537 52.7533C6.33704 53.1471 6.14812 53.6662 6.16945 54.1982C6.17024 54.5297 6.22803 54.8587 6.3403 55.1706C6.51089 55.572 6.7364 55.9478 7.01036 56.2871C7.18122 56.5234 7.4041 56.7997 7.68675 57.1309L7.80487 57.282L7.96237 57.1639C8.23008 56.982 8.48692 56.7845 8.73156 56.5726C9.14314 56.2323 9.48442 55.8151 9.7363 55.3443C9.93697 54.9239 10.038 54.4629 10.0316 53.9971C10.0443 53.7524 10.0052 53.5077 9.91688 53.279C9.82855 53.0504 9.69299 52.843 9.51904 52.6704M7.87518 56.7146C7.65792 56.4587 7.48144 56.2288 7.34293 56.0382C7.08959 55.731 6.88365 55.3876 6.73193 55.0194C6.63445 54.7567 6.58538 54.4784 6.58709 54.1982C6.57493 53.9871 6.6047 53.7758 6.6747 53.5763C6.74469 53.3768 6.85352 53.1932 6.99489 53.036C7.1443 52.886 7.32441 52.7701 7.52285 52.6963C7.72129 52.6225 7.93336 52.5925 8.14447 52.6085C8.53916 52.5813 8.9286 52.7112 9.22796 52.9699C9.36257 53.1026 9.46694 53.2629 9.53392 53.4397C9.6009 53.6165 9.62892 53.8057 9.61607 53.9943C9.62145 54.3985 9.53389 54.7986 9.36014 55.1636C9.13337 55.582 8.82776 55.9525 8.46017 56.2548C8.29564 56.3954 8.10861 56.5501 7.87518 56.7146ZM10.3712 64.941C9.83263 64.415 9.25467 63.8244 8.63735 63.1832C7.62558 62.1285 6.75865 61.1997 6.04219 60.4242L5.91774 60.2836L5.76587 60.394C5.59501 60.5191 5.43752 60.6436 5.29971 60.7617C4.93679 61.0594 4.64796 61.4372 4.45598 61.8656C4.29773 62.2945 4.22164 62.7493 4.23169 63.2064C4.22212 63.7083 4.37667 64.1996 4.67183 64.6056C4.98342 65.0139 5.39818 65.3318 5.87344 65.5266C6.41971 65.7477 7.0047 65.8572 7.59394 65.8487C8.43675 65.8666 9.27429 65.7116 10.0548 65.393C10.1146 65.3727 10.1729 65.3403 10.2327 65.3143L10.5842 65.1498L10.3712 64.941ZM7.59253 65.4268C7.06202 65.4392 6.53454 65.3435 6.04219 65.1456C5.6321 64.9833 5.27506 64.7104 5.01073 64.3574C4.76274 64.0258 4.63392 63.6203 4.64512 63.2064C4.6388 62.8022 4.70893 62.4005 4.85183 62.0224C5.01632 61.6537 5.26626 61.3295 5.58095 61.0767C5.67204 60.9917 5.76857 60.9128 5.86993 60.8404C6.55967 61.5892 7.38723 62.4695 8.34626 63.4679C8.87851 64.0262 9.39108 64.5514 9.86356 65.0246C9.14245 65.3079 8.37198 65.4441 7.59746 65.4254M10.3761 64.9395C9.83755 64.4136 9.2596 63.823 8.64227 63.1818C7.6305 62.1271 6.76357 61.1983 6.04711 60.4228L5.92266 60.2822L5.76587 60.394C5.59501 60.5191 5.43752 60.6436 5.29971 60.7617C4.93679 61.0594 4.64796 61.4372 4.45598 61.8656C4.29773 62.2945 4.22164 62.7493 4.23169 63.2064C4.22212 63.7083 4.37667 64.1996 4.67183 64.6056C4.98342 65.0139 5.39818 65.3318 5.87344 65.5266C6.41971 65.7477 7.0047 65.8572 7.59394 65.8487C8.43675 65.8666 9.27429 65.7116 10.0548 65.393C10.1146 65.3727 10.1729 65.3403 10.2327 65.3143L10.5842 65.1498L10.3761 64.9395ZM7.59746 65.4254C7.06695 65.4378 6.53946 65.3421 6.04711 65.1441C5.63703 64.9818 5.27998 64.709 5.01565 64.356C4.76621 64.0254 4.63565 63.6204 4.64512 63.2064C4.6388 62.8022 4.70893 62.4005 4.85183 62.0224C5.01632 61.6537 5.26626 61.3295 5.58095 61.0767C5.67204 60.9917 5.76857 60.9128 5.86993 60.8404C6.55967 61.5892 7.38723 62.4695 8.34626 63.4679C8.87851 64.0262 9.39108 64.5514 9.86356 65.0246C9.14245 65.3079 8.37198 65.4441 7.59746 65.4254ZM9.52256 52.6682C9.14315 52.3395 8.65147 52.17 8.1501 52.1951C7.88224 52.1788 7.61402 52.2203 7.36355 52.3166C7.11308 52.4129 6.88618 52.5618 6.69818 52.7533C6.33986 53.1471 6.15093 53.6662 6.17226 54.1982C6.17305 54.5297 6.23085 54.8587 6.34312 55.1706C6.51371 55.572 6.73921 55.9478 7.01318 56.2871C7.18403 56.5234 7.40691 56.7997 7.68956 57.1309L7.80768 57.282L7.96518 57.1639C8.23289 56.982 8.48973 56.7845 8.73438 56.5726C9.14595 56.2323 9.48723 55.8151 9.73911 55.3443C9.93978 54.9239 10.0408 54.4629 10.0344 53.9971C10.0471 53.7524 10.008 53.5077 9.91969 53.279C9.83137 53.0504 9.6958 52.843 9.52185 52.6704M7.87518 56.7146C7.65792 56.4587 7.48144 56.2288 7.34293 56.0382C7.08959 55.731 6.88365 55.3876 6.73193 55.0194C6.63445 54.7567 6.58538 54.4784 6.58709 54.1982C6.57493 53.9871 6.6047 53.7758 6.6747 53.5763C6.74469 53.3768 6.85352 53.1932 6.99489 53.036C7.1443 52.886 7.32441 52.7701 7.52285 52.6963C7.72129 52.6225 7.93336 52.5925 8.14447 52.6085C8.53916 52.5813 8.9286 52.7112 9.22796 52.9699C9.36257 53.1026 9.46694 53.2629 9.53392 53.4397C9.6009 53.6165 9.62892 53.8057 9.61607 53.9943C9.62145 54.3985 9.53389 54.7986 9.36014 55.1636C9.13337 55.582 8.82776 55.9525 8.46017 56.2548C8.29564 56.3954 8.10861 56.5501 7.87518 56.7146ZM9.51764 52.6682C9.13823 52.3395 8.64655 52.17 8.14517 52.1951C7.87732 52.1788 7.6091 52.2203 7.35862 52.3166C7.10815 52.4129 6.88126 52.5618 6.69326 52.7533C6.33493 53.1471 6.14601 53.6662 6.16734 54.1982C6.16813 54.5297 6.22592 54.8587 6.33819 55.1706C6.50878 55.572 6.73429 55.9478 7.00825 56.2871C7.17911 56.5234 7.40199 56.7997 7.68464 57.1309L7.80276 57.282L7.96026 57.1639C8.22797 56.982 8.48481 56.7845 8.72945 56.5726C9.14103 56.2323 9.48231 55.8151 9.73419 55.3443C9.93486 54.9239 10.0359 54.4629 10.0295 53.9971C10.0422 53.7524 10.0031 53.5077 9.91477 53.279C9.82644 53.0504 9.69088 52.843 9.51693 52.6704M7.87518 56.7146C7.65792 56.4587 7.48144 56.2288 7.34293 56.0382C7.08959 55.731 6.88365 55.3876 6.73193 55.0194C6.63445 54.7567 6.58538 54.4784 6.58709 54.1982C6.57493 53.9871 6.6047 53.7758 6.6747 53.5763C6.74469 53.3768 6.85352 53.1932 6.99489 53.036C7.1443 52.886 7.32441 52.7701 7.52285 52.6963C7.72129 52.6225 7.93336 52.5925 8.14447 52.6085C8.53916 52.5813 8.9286 52.7112 9.22796 52.9699C9.36257 53.1026 9.46694 53.2629 9.53392 53.4397C9.6009 53.6165 9.62892 53.8057 9.61607 53.9943C9.62145 54.3985 9.53389 54.7986 9.36014 55.1636C9.13337 55.582 8.82776 55.9525 8.46017 56.2548C8.29564 56.3954 8.10861 56.5501 7.87518 56.7146ZM10.3712 64.941C9.83263 64.415 9.25467 63.8244 8.63735 63.1832C7.62558 62.1285 6.75865 61.1997 6.04219 60.4242L5.91774 60.2836L5.76587 60.394C5.59501 60.5191 5.43752 60.6436 5.29971 60.7617C4.93679 61.0594 4.64796 61.4372 4.45598 61.8656C4.29773 62.2945 4.22164 62.7493 4.23169 63.2064C4.22212 63.7083 4.37667 64.1996 4.67183 64.6056C4.98342 65.0139 5.39818 65.3318 5.87344 65.5266C6.41971 65.7477 7.0047 65.8572 7.59394 65.8487C8.43675 65.8666 9.27429 65.7116 10.0548 65.393C10.1146 65.3727 10.1729 65.3403 10.2327 65.3143L10.5842 65.1498L10.3712 64.941ZM7.59253 65.4268C7.06202 65.4392 6.53454 65.3435 6.04219 65.1456C5.6321 64.9833 5.27506 64.7104 5.01073 64.3574C4.76274 64.0258 4.63392 63.6203 4.64512 63.2064C4.6388 62.8022 4.70893 62.4005 4.85183 62.0224C5.01632 61.6537 5.26626 61.3295 5.58095 61.0767C5.67204 60.9917 5.76857 60.9128 5.86993 60.8404C6.55967 61.5892 7.38723 62.4695 8.34626 63.4679C8.87851 64.0262 9.39108 64.5514 9.86356 65.0246C9.14245 65.3079 8.37198 65.4441 7.59746 65.4254M10.3761 64.9395C9.83755 64.4136 9.2596 63.823 8.64227 63.1818C7.6305 62.1271 6.76357 61.1983 6.04711 60.4228L5.92266 60.2822L5.76587 60.394C5.59501 60.5191 5.43752 60.6436 5.29971 60.7617C4.93679 61.0594 4.64796 61.4372 4.45598 61.8656C4.29773 62.2945 4.22164 62.7493 4.23169 63.2064C4.22212 63.7083 4.37667 64.1996 4.67183 64.6056C4.98342 65.0139 5.39818 65.3318 5.87344 65.5266C6.41971 65.7477 7.0047 65.8572 7.59394 65.8487C8.43675 65.8666 9.27429 65.7116 10.0548 65.393C10.1146 65.3727 10.1729 65.3403 10.2327 65.3143L10.5842 65.1498L10.3761 64.9395ZM7.59746 65.4254C7.06695 65.4378 6.53946 65.3421 6.04711 65.1441C5.63703 64.9818 5.27998 64.709 5.01565 64.356C4.76621 64.0254 4.63565 63.6204 4.64512 63.2064C4.6388 62.8022 4.70893 62.4005 4.85183 62.0224C5.01632 61.6537 5.26626 61.3295 5.58095 61.0767C5.67204 60.9917 5.76857 60.9128 5.86993 60.8404C6.55967 61.5892 7.38723 62.4695 8.34626 63.4679C8.87851 64.0262 9.39108 64.5514 9.86356 65.0246C9.14245 65.3079 8.37198 65.4441 7.59746 65.4254ZM7.01247 56.285C7.18333 56.5213 7.40621 56.7976 7.68886 57.1287L7.80698 57.2799L7.96448 57.1618C8.23219 56.9799 8.48903 56.7824 8.73367 56.5705C9.14525 56.2302 9.48653 55.813 9.73841 55.3422C9.93908 54.9218 10.0401 54.4608 10.0337 53.995C10.0464 53.7502 10.0073 53.5056 9.91899 53.2769C9.83066 53.0483 9.6951 52.8409 9.52115 52.6682C9.14174 52.3395 8.65006 52.17 8.14869 52.1951C7.88083 52.1788 7.61261 52.2203 7.36214 52.3166C7.11167 52.4129 6.88478 52.5618 6.69678 52.7533C6.33845 53.1471 6.14952 53.6662 6.17085 54.1982C6.17165 54.5297 6.22944 54.8587 6.34171 55.1706C6.5123 55.572 6.73781 55.9478 7.01177 56.2871M8.14869 52.6085C8.54338 52.5813 8.93282 52.7112 9.23218 52.9699C9.36679 53.1026 9.47115 53.2629 9.53814 53.4397C9.60512 53.6165 9.63314 53.8057 9.62029 53.9943C9.62567 54.3985 9.53811 54.7986 9.36436 55.1636C9.13759 55.582 8.83198 55.9525 8.46438 56.2548C8.29986 56.3954 8.11283 56.5501 7.8794 56.7146C7.66214 56.4587 7.48566 56.2288 7.34715 56.0382C7.09381 55.731 6.88787 55.3876 6.73615 55.0194C6.63867 54.7567 6.5896 54.4784 6.59131 54.1982C6.57914 53.9871 6.60892 53.7758 6.67891 53.5763C6.74891 53.3768 6.85774 53.1932 6.99911 53.036C7.14852 52.886 7.32863 52.7701 7.52707 52.6963C7.72551 52.6225 7.93757 52.5925 8.14869 52.6085ZM18.0625 65.2018C17.8593 65.2215 17.6624 65.2278 17.4775 65.2278C17.1619 65.2307 16.847 65.1976 16.5388 65.1294C16.0687 65.0089 15.6282 64.7936 15.2444 64.4966C15.7343 63.8454 16.1272 63.1266 16.4109 62.3627C16.819 61.2293 17.0235 60.0327 17.0148 58.8281V58.625L13.2884 58.5321L13.2954 58.7494C13.3477 59.6232 13.2565 60.4996 13.0254 61.3439C12.9467 61.6202 12.8546 61.8824 12.7561 62.1384C12.2499 61.6061 11.6846 60.9951 11.0546 60.3103C10.5948 59.8048 10.1877 59.3386 9.81294 58.9245C10.34 58.7108 10.8477 58.4521 11.3302 58.1511C12.1365 57.6568 12.8055 56.9677 13.2757 56.1472C13.7014 55.3822 13.9209 54.5196 13.9127 53.6442C13.9157 52.8004 13.6795 51.973 13.2315 51.258C12.7836 50.543 12.1421 49.9695 11.3816 49.6041C10.3583 49.1289 9.23753 48.9016 8.11002 48.9404C6.90218 48.8941 5.70225 49.1541 4.62191 49.6962C3.78795 50.1359 3.09378 50.8003 2.61806 51.6143C2.19293 52.3571 1.96922 53.1982 1.9691 54.0541C1.96833 54.653 2.05333 55.2489 2.22151 55.8238C2.44294 56.4773 2.76176 57.0936 3.16719 57.6519C3.31203 57.8628 3.48921 58.0983 3.69944 58.3683C3.42655 58.4664 3.16103 58.5839 2.90493 58.7199C2.22499 59.0769 1.62646 59.571 1.14717 60.1711C0.745348 60.6813 0.443143 61.2626 0.256332 61.8846C0.0915096 62.4369 0.00535225 63.0097 0.000402031 63.5861C-0.0128921 64.6562 0.303804 65.7045 0.907408 66.5883C1.52687 67.4236 2.37251 68.064 3.34437 68.434C4.48731 68.8754 5.70521 69.0903 6.93021 69.0668C8.34764 69.101 9.75418 68.8112 11.0427 68.2195C11.5322 67.978 11.9947 67.6851 12.4222 67.3456C12.78 67.6235 13.1527 67.8817 13.5387 68.119C14.1384 68.4875 14.7992 68.7456 15.4898 68.8812C16.2006 69.0111 16.9223 69.0725 17.6448 69.0647H17.8283L17.8987 68.493L18.3121 65.1758L18.0625 65.2018ZM17.4648 68.647C16.8304 68.6458 16.1972 68.5886 15.5728 68.4762C14.9317 68.3468 14.3181 68.1067 13.7595 67.7667C13.3381 67.5117 12.9343 67.2286 12.5508 66.9195L12.4194 66.8077L12.2886 66.9195C11.8528 67.2822 11.3764 67.5932 10.869 67.8462C9.63473 68.4098 8.288 68.684 6.93161 68.6477C5.76133 68.6714 4.59735 68.4706 3.50257 68.0564C2.60413 67.7115 1.82334 67.1164 1.25263 66.3415C0.695417 65.5294 0.405169 64.5638 0.422265 63.579C0.426894 63.0449 0.506416 62.514 0.658509 62.002C0.828825 61.4282 1.10497 60.8914 1.4727 60.4193C1.91724 59.8656 2.47231 59.4106 3.1025 59.0834C3.42777 58.914 3.76612 58.7711 4.11427 58.6559L4.38989 58.5511L4.20638 58.3205C3.9174 57.969 3.69381 57.6638 3.5103 57.4065C3.13111 56.8846 2.83204 56.3089 2.62298 55.6986C2.4641 55.1635 2.38474 54.608 2.38744 54.0498C2.39125 53.2663 2.59709 52.4969 2.98508 51.8161C3.42434 51.0704 4.06372 50.4627 4.83074 50.0618C5.84895 49.5544 6.97892 49.3125 8.11564 49.3587C9.17667 49.3194 10.232 49.5309 11.1959 49.9761C11.9167 50.3276 12.5212 50.8789 12.9375 51.5644C13.3058 52.1965 13.4985 52.9154 13.4958 53.647C13.5033 54.4524 13.3043 55.2464 12.9179 55.9532C12.4747 56.7102 11.8519 57.3465 11.1045 57.8058C10.5629 58.1439 9.98864 58.4266 9.39037 58.6496L9.10913 58.7614L9.31233 58.9842C9.73419 59.4645 10.206 59.996 10.7516 60.6014C11.48 61.3903 12.1236 62.0779 12.6823 62.6643L12.8932 62.8949L13.024 62.6059C13.1845 62.2386 13.3208 61.8612 13.4318 61.476C13.6549 60.6569 13.7523 59.8087 13.7208 58.9603L16.5332 59.0391H16.5937C16.5803 60.1258 16.385 61.2027 16.0157 62.2249C15.7261 63.0167 15.3088 63.7559 14.7804 64.4129L14.6496 64.5774L14.9308 64.794C15.3753 65.1482 15.8902 65.4035 16.4411 65.5428C16.9003 65.6449 17.3721 65.6781 17.841 65.6412L17.4894 68.3735L17.4648 68.647ZM8.63946 63.1783C7.62769 62.1236 6.76076 61.1948 6.0443 60.4193L5.91985 60.2787L5.76587 60.394C5.59501 60.5191 5.43752 60.6436 5.29971 60.7617C4.93679 61.0594 4.64796 61.4372 4.45598 61.8656C4.29773 62.2945 4.22164 62.7493 4.23169 63.2064C4.22212 63.7083 4.37667 64.1996 4.67183 64.6056C4.98342 65.0139 5.39818 65.3318 5.87344 65.5266C6.41971 65.7477 7.0047 65.8572 7.59394 65.8487C8.43675 65.8666 9.27429 65.7116 10.0548 65.393C10.1146 65.3727 10.1729 65.3403 10.2327 65.3143L10.5842 65.1498L10.3733 64.9388C9.83474 64.4129 9.25678 63.8223 8.63946 63.1811M7.59464 65.431C7.06413 65.4434 6.53665 65.3477 6.0443 65.1498C5.63421 64.9875 5.27717 64.7146 5.01284 64.3616C4.76319 64.0292 4.63357 63.622 4.64512 63.2064C4.6388 62.8022 4.70893 62.4005 4.85183 62.0224C5.01632 61.6537 5.26626 61.3295 5.58095 61.0767C5.67204 60.9917 5.76857 60.9128 5.86993 60.8404C6.55967 61.5892 7.38723 62.4695 8.34626 63.4679C8.87851 64.0262 9.39108 64.5514 9.86356 65.0246C9.14245 65.3079 8.37198 65.4441 7.59746 65.4254M7.01247 56.285C7.18333 56.5213 7.40621 56.7976 7.68886 57.1287L7.80698 57.2799L7.96448 57.1618C8.23219 56.9799 8.48903 56.7824 8.73367 56.5705C9.14525 56.2302 9.48653 55.813 9.73841 55.3422C9.93908 54.9218 10.0401 54.4608 10.0337 53.995C10.0464 53.7502 10.0073 53.5056 9.91899 53.2769C9.83066 53.0483 9.6951 52.8409 9.52115 52.6682C9.14174 52.3395 8.65006 52.17 8.14869 52.1951C7.88083 52.1788 7.61261 52.2203 7.36214 52.3166C7.11167 52.4129 6.88478 52.5618 6.69678 52.7533C6.33845 53.1471 6.14952 53.6662 6.17085 54.1982C6.17165 54.5297 6.22944 54.8587 6.34171 55.1706C6.5123 55.572 6.73781 55.9478 7.01177 56.2871M8.14869 52.6085C8.54338 52.5813 8.93282 52.7112 9.23218 52.9699C9.36679 53.1026 9.47115 53.2629 9.53814 53.4397C9.60512 53.6165 9.63314 53.8057 9.62029 53.9943C9.62567 54.3985 9.53811 54.7986 9.36436 55.1636C9.13759 55.582 8.83198 55.9525 8.46438 56.2548C8.29986 56.3954 8.11283 56.5501 7.8794 56.7146C7.66214 56.4587 7.48566 56.2288 7.34715 56.0382C7.09381 55.731 6.88787 55.3876 6.73615 55.0194C6.63867 54.7567 6.5896 54.4784 6.59131 54.1982C6.57914 53.9871 6.60892 53.7758 6.67891 53.5763C6.74891 53.3768 6.85774 53.1932 6.99911 53.036C7.14852 52.886 7.32863 52.7701 7.52707 52.6963C7.72551 52.6225 7.93757 52.5925 8.14869 52.6085ZM9.52115 52.6682C9.14174 52.3395 8.65006 52.17 8.14869 52.1951C7.88083 52.1788 7.61261 52.2203 7.36214 52.3166C7.11167 52.4129 6.88478 52.5618 6.69678 52.7533C6.33845 53.1471 6.14952 53.6662 6.17085 54.1982C6.17165 54.5297 6.22944 54.8587 6.34171 55.1706C6.5123 55.572 6.73781 55.9478 7.01177 56.2871C7.18262 56.5234 7.40551 56.7997 7.68816 57.1309L7.80628 57.282L7.96377 57.1639C8.23149 56.982 8.48833 56.7845 8.73297 56.5726C9.14454 56.2323 9.48582 55.8151 9.73771 55.3443C9.93837 54.9239 10.0394 54.4629 10.033 53.9971C10.0457 53.7524 10.0066 53.5077 9.91828 53.279C9.82996 53.0504 9.6944 52.843 9.52045 52.6704M7.87518 56.7146C7.65792 56.4587 7.48144 56.2288 7.34293 56.0382C7.08959 55.731 6.88365 55.3876 6.73193 55.0194C6.63445 54.7567 6.58538 54.4784 6.58709 54.1982C6.57493 53.9871 6.6047 53.7758 6.6747 53.5763C6.74469 53.3768 6.85352 53.1932 6.99489 53.036C7.1443 52.886 7.32441 52.7701 7.52285 52.6963C7.72129 52.6225 7.93336 52.5925 8.14447 52.6085C8.53916 52.5813 8.9286 52.7112 9.22796 52.9699C9.36257 53.1026 9.46694 53.2629 9.53392 53.4397C9.6009 53.6165 9.62892 53.8057 9.61607 53.9943C9.62145 54.3985 9.53389 54.7986 9.36014 55.1636C9.13337 55.582 8.82776 55.9525 8.46017 56.2548C8.29564 56.3954 8.10861 56.5501 7.87518 56.7146ZM10.3712 64.941C9.83263 64.415 9.25467 63.8244 8.63735 63.1832C7.62558 62.1285 6.75865 61.1997 6.04219 60.4242L5.91774 60.2836L5.76587 60.394C5.59501 60.5191 5.43752 60.6436 5.29971 60.7617C4.93679 61.0594 4.64796 61.4372 4.45598 61.8656C4.29773 62.2945 4.22164 62.7493 4.23169 63.2064C4.22212 63.7083 4.37667 64.1996 4.67183 64.6056C4.98342 65.0139 5.39818 65.3318 5.87344 65.5266C6.41971 65.7477 7.0047 65.8572 7.59394 65.8487C8.43675 65.8666 9.27429 65.7116 10.0548 65.393C10.1146 65.3727 10.1729 65.3403 10.2327 65.3143L10.5842 65.1498L10.3712 64.941ZM7.59253 65.4268C7.06202 65.4392 6.53454 65.3435 6.04219 65.1456C5.6321 64.9833 5.27506 64.7104 5.01073 64.3574C4.76274 64.0258 4.63392 63.6203 4.64512 63.2064C4.6388 62.8022 4.70893 62.4005 4.85183 62.0224C5.01632 61.6537 5.26626 61.3295 5.58095 61.0767C5.67204 60.9917 5.76857 60.9128 5.86993 60.8404C6.55967 61.5892 7.38723 62.4695 8.34626 63.4679C8.87851 64.0262 9.39108 64.5514 9.86356 65.0246C9.14245 65.3079 8.37198 65.4441 7.59746 65.4254M10.3761 64.9395C9.83755 64.4136 9.2596 63.823 8.64227 63.1818C7.6305 62.1271 6.76357 61.1983 6.04711 60.4228L5.92266 60.2822L5.76587 60.394C5.59501 60.5191 5.43752 60.6436 5.29971 60.7617C4.93679 61.0594 4.64796 61.4372 4.45598 61.8656C4.29773 62.2945 4.22164 62.7493 4.23169 63.2064C4.22212 63.7083 4.37667 64.1996 4.67183 64.6056C4.98342 65.0139 5.39818 65.3318 5.87344 65.5266C6.41971 65.7477 7.0047 65.8572 7.59394 65.8487C8.43675 65.8666 9.27429 65.7116 10.0548 65.393C10.1146 65.3727 10.1729 65.3403 10.2327 65.3143L10.5842 65.1498L10.3761 64.9395ZM7.59746 65.4254C7.06695 65.4378 6.53946 65.3421 6.04711 65.1441C5.63703 64.9818 5.27998 64.709 5.01565 64.356C4.76621 64.0254 4.63565 63.6204 4.64512 63.2064C4.6388 62.8022 4.70893 62.4005 4.85183 62.0224C5.01632 61.6537 5.26626 61.3295 5.58095 61.0767C5.67204 60.9917 5.76857 60.9128 5.86993 60.8404C6.55967 61.5892 7.38723 62.4695 8.34626 63.4679C8.87851 64.0262 9.39108 64.5514 9.86356 65.0246C9.14245 65.3079 8.37198 65.4441 7.59746 65.4254ZM9.52256 52.6682C9.14315 52.3395 8.65147 52.17 8.1501 52.1951C7.88224 52.1788 7.61402 52.2203 7.36355 52.3166C7.11308 52.4129 6.88618 52.5618 6.69818 52.7533C6.33986 53.1471 6.15093 53.6662 6.17226 54.1982C6.17305 54.5297 6.23085 54.8587 6.34312 55.1706C6.51371 55.572 6.73921 55.9478 7.01318 56.2871C7.18403 56.5234 7.40691 56.7997 7.68956 57.1309L7.80768 57.282L7.96518 57.1639C8.23289 56.982 8.48973 56.7845 8.73438 56.5726C9.14595 56.2323 9.48723 55.8151 9.73911 55.3443C9.93978 54.9239 10.0408 54.4629 10.0344 53.9971C10.0471 53.7524 10.008 53.5077 9.91969 53.279C9.83137 53.0504 9.6958 52.843 9.52185 52.6704M7.87518 56.7146C7.65792 56.4587 7.48144 56.2288 7.34293 56.0382C7.08959 55.731 6.88365 55.3876 6.73193 55.0194C6.63445 54.7567 6.58538 54.4784 6.58709 54.1982C6.57493 53.9871 6.6047 53.7758 6.6747 53.5763C6.74469 53.3768 6.85352 53.1932 6.99489 53.036C7.1443 52.886 7.32441 52.7701 7.52285 52.6963C7.72129 52.6225 7.93336 52.5925 8.14447 52.6085C8.53916 52.5813 8.9286 52.7112 9.22796 52.9699C9.36257 53.1026 9.46694 53.2629 9.53392 53.4397C9.6009 53.6165 9.62892 53.8057 9.61607 53.9943C9.62145 54.3985 9.53389 54.7986 9.36014 55.1636C9.13337 55.582 8.82776 55.9525 8.46017 56.2548C8.29564 56.3954 8.10861 56.5501 7.87518 56.7146Z" fill="white"/>
<path d="M31.582 69.0618H31.3978C30.6762 69.0686 29.9556 69.0093 29.2449 68.8846C28.5554 68.7452 27.8954 68.4868 27.2945 68.1211C26.9064 67.8867 26.5332 67.6284 26.1772 67.3476C25.7504 67.6865 25.2881 67.9781 24.7984 68.2174C23.5081 68.8093 22.0995 69.0979 20.6803 69.0611C19.4562 69.0848 18.2389 68.8734 17.0945 68.4382C16.1208 68.0677 15.2746 67.4242 14.6575 66.5848C14.0528 65.7023 13.7358 64.6544 13.7498 63.5846C13.7544 63.0095 13.8399 62.4379 14.0037 61.8866C14.1905 61.2633 14.4918 60.6803 14.8924 60.1675C15.3712 59.5681 15.9699 59.0753 16.6501 58.7205C16.9071 58.5834 17.1727 58.4631 17.4454 58.3606C17.2344 58.0934 17.0587 57.8585 16.9124 57.6476C16.5062 57.0905 16.1889 56.4739 15.9717 55.8195C15.7998 55.2452 15.7138 54.6486 15.7164 54.0491C15.7193 53.1955 15.9431 52.3571 16.3661 51.6157C16.8413 50.8 17.5368 50.1347 18.3728 49.6962C19.4544 49.1561 20.6549 48.8978 21.863 48.9453C22.9892 48.9041 24.1091 49.1304 25.131 49.6055C25.8923 49.9694 26.5344 50.5422 26.9826 51.2571C27.4307 51.9721 27.6664 52.7996 27.6622 53.6434C27.6694 54.5189 27.4515 55.3816 27.0294 56.1486C26.5542 56.9661 25.8838 57.6531 25.0783 58.1482C24.5984 58.4518 24.0917 58.7106 23.5645 58.9216C23.9371 59.3393 24.3463 59.7991 24.802 60.3082C25.4362 60.9935 26.0045 61.6028 26.507 62.1362C26.6075 61.8789 26.6982 61.6145 26.7777 61.3452C27.0051 60.4979 27.0953 59.6196 27.0449 58.7437L27.0364 58.5216L30.7629 58.6193V58.8218C30.7715 60.0265 30.5663 61.2233 30.1568 62.3563C29.8748 63.1226 29.48 63.8426 28.9854 64.4923C29.3714 64.788 29.8127 65.0032 30.2834 65.1251C30.7851 65.2307 31.3005 65.2544 31.8098 65.1954L32.07 65.1751L31.582 69.0618ZM21.8679 49.365C20.7307 49.3179 19.6 49.558 18.5802 50.0632C17.8123 50.4643 17.1729 51.0734 16.7352 51.821C16.347 52.5004 16.1413 53.2687 16.1383 54.0512C16.1356 54.6095 16.2155 55.1651 16.3752 55.7C16.5799 56.3117 16.878 56.8881 17.259 57.4086C17.4404 57.6694 17.6689 57.971 17.9565 58.3261L18.1428 58.5567L17.8616 58.6538C17.5144 58.7697 17.1774 58.914 16.854 59.0855C16.224 59.4126 15.6692 59.8676 15.225 60.4214C14.8557 60.8931 14.5777 61.4296 14.4051 62.0033C14.2527 62.5161 14.1727 63.0476 14.1675 63.5825C14.1536 64.5663 14.4433 65.5304 14.9971 66.3436C15.5687 67.1184 16.3516 67.7119 17.252 68.0529C18.346 68.4675 19.5093 68.6687 20.6789 68.6456C22.0356 68.6819 23.3826 68.4067 24.6163 67.8412C25.127 67.5925 25.6055 67.2828 26.0415 66.9188L26.1723 66.8091L26.3059 66.9152C26.687 67.2243 27.0884 67.5073 27.5075 67.7625C28.0668 68.1035 28.681 68.3448 29.3229 68.4754C29.9481 68.5857 30.5816 68.6419 31.2164 68.6435L31.5947 65.6342C31.1256 65.6678 30.654 65.6352 30.1941 65.5372C29.6442 65.3959 29.1295 65.1424 28.6824 64.7926L28.4011 64.5725L28.534 64.4073C29.062 63.7504 29.4792 63.0118 29.7694 62.2206C30.1397 61.1987 30.3355 60.1217 30.3488 59.0348L27.4716 58.9589C27.5024 59.8052 27.4048 60.6513 27.182 61.4683C27.0682 61.8537 26.9313 62.232 26.7721 62.601L26.6455 62.89L26.4289 62.6608C25.8735 62.0748 25.2294 61.386 24.4968 60.5943C23.9575 59.9904 23.4829 59.4588 23.059 58.9821L22.8586 58.7578L23.1398 58.6488C23.7391 58.4258 24.314 58.1419 24.8554 57.8016C25.6033 57.3432 26.2262 56.707 26.6687 55.9496C27.0568 55.2441 27.2572 54.4507 27.2509 53.6455C27.255 52.8783 27.0403 52.1258 26.632 51.4762C26.2236 50.8267 25.6386 50.307 24.9454 49.9781C23.9824 49.5342 22.9282 49.3239 21.8686 49.3643M21.3476 65.8458C20.7577 65.8575 20.1715 65.7489 19.625 65.5266C19.1509 65.3319 18.738 65.013 18.4297 64.6034C18.1326 64.1983 17.9761 63.7072 17.9839 63.205C17.9752 62.7488 18.0545 62.2952 18.2174 61.869C18.4059 61.4392 18.693 61.0598 19.0555 60.7617C19.1905 60.6435 19.3508 60.5198 19.5216 60.3946L19.6714 60.2843L19.7972 60.4249C20.5102 61.1983 21.3849 62.1257 22.3987 63.1818C23.0104 63.8237 23.594 64.4157 24.1256 64.9395L24.3407 65.1504L23.9842 65.3157C23.9245 65.3431 23.8668 65.3719 23.8071 65.3972C23.0256 65.7119 22.1885 65.8652 21.3462 65.8479M19.6151 60.8418C19.5104 60.9213 19.4126 60.9993 19.3255 61.0759C19.0126 61.3314 18.764 61.6568 18.5999 62.0258C18.4574 62.403 18.3889 62.804 18.3981 63.2071C18.3891 63.6204 18.5171 64.0251 18.7623 64.358C19.0285 64.7082 19.3844 64.9798 19.7923 65.1441C20.2856 65.3446 20.8145 65.4424 21.3469 65.4317C22.1227 65.4477 22.894 65.3093 23.6158 65.0246C23.1384 64.55 22.6279 64.0269 22.0936 63.4665C21.1395 62.4702 20.3056 61.5885 19.6158 60.8418M21.5571 57.2785L21.4334 57.1308C21.1521 56.7997 20.9349 56.5254 20.7605 56.292C20.487 55.9499 20.2626 55.5713 20.094 55.1671C19.98 54.8565 19.9219 54.5283 19.9224 54.1975C19.8999 53.6662 20.0864 53.1473 20.442 52.7519C20.6317 52.5617 20.8594 52.4137 21.1102 52.3175C21.3609 52.2213 21.6292 52.1791 21.8974 52.1936C22.3996 52.1686 22.8919 52.3395 23.2706 52.6703C23.445 52.8423 23.581 53.0492 23.6697 53.2775C23.7585 53.5059 23.7978 53.7504 23.7853 53.995C23.791 54.4623 23.6897 54.9248 23.4893 55.347C23.2375 55.8172 22.8959 56.2333 22.4838 56.5719C22.2729 56.7533 22.0233 56.9487 21.7104 57.1681L21.5571 57.2785ZM21.8974 52.6106C21.6862 52.5959 21.4743 52.6265 21.2758 52.7002C21.0774 52.7739 20.8969 52.8891 20.7464 53.038C20.6056 53.1951 20.4971 53.3785 20.4271 53.5775C20.3571 53.7766 20.3271 53.9875 20.3386 54.1982C20.3384 54.4803 20.3882 54.7602 20.4856 55.025C20.6404 55.3908 20.845 55.7334 21.0938 56.0431C21.2344 56.2323 21.4144 56.4573 21.6288 56.716C21.8552 56.5501 22.0507 56.3968 22.2096 56.2576C22.5798 55.9559 22.8875 55.5847 23.1152 55.1649C23.2876 54.7996 23.3742 54.3996 23.3683 53.9957C23.381 53.8081 23.3535 53.6199 23.2875 53.4439C23.2215 53.2678 23.1187 53.1078 22.9858 52.9748C22.6843 52.7158 22.2933 52.5853 21.8967 52.6113" fill="white"/>
<path d="M159.46 44.0355H146.715V40.288H159.46V44.0355ZM147.134 43.6193H159.038V40.7042H147.132L147.134 43.6193Z" fill="white"/>
</svg>
